<svg xmlns="http://www.w3.org/2000/svg" width="952" height="1024" viewBox="0 0 952 1024">
    <path fill="#FFF" fill-rule="nonzero" d="M414.061 511.622c0-5.56 0-12.972-1.853-18.399C494.958 430.35 572.148 369.461 640.203 314 671.45 374.888 688 441.336 688 513.343v3.706C688 742.335 528.059 925 298.342 925 178.916 925 75.908 873.245 6 793.958c71.63-49.902 152.526-107.084 235.277-169.825 16.55 9.265 34.954 12.972 53.358 12.972 66.069 0 119.426-55.33 119.426-125.483M-95 513.746v-3.707C-95 284.704 64.941 102 294.658 102 414.216 102 517.092 153.766 587 233.07c-71.63 49.78-152.526 106.975-235.277 169.862-16.55-9.267-34.954-12.974-53.358-12.974-66.201 0-119.426 55.34-119.426 125.51 0 5.56 0 12.974 1.853 18.402C98.042 596.625 20.852 657.527-47.203 713-78.45 652.231-95 585.769-95 513.746M-306.32 512v3.706c0 121.906 34.961 236.268 97.467 330.51-99.188 86.697-154.41 145.731-145.14 156.85 9.138 11.118 80.913-25.811 191.224-95.963C-56.165 1030.729 105.661 1112 296.884 1112c354.904 0 606.78-275.05 606.78-600v-3.706c0-121.774-34.961-236.268-97.466-330.51 97.333-84.844 152.555-144.01 145.14-156.85-9.138-11.118-80.914 25.811-191.225 95.963C653.51-6.862 491.684-88 300.46-88c-354.771 0-606.78 275.05-606.78 600"/>
</svg>
