<svg xmlns="http://www.w3.org/2000/svg" width="148" height="136" viewBox="0 0 148 136">
    <path fill="#007482" fill-rule="nonzero" d="M87.133 68c0-.63 0-1.47-.21-2.085a973.93 973.93 0 0 0 25.822-20.312c3.54 6.9 5.414 14.431 5.414 22.592v.42c0 25.532-18.115 46.233-44.132 46.233-13.526 0-25.192-5.865-33.11-14.85 8.112-5.656 17.275-12.137 26.647-19.247 1.874 1.05 3.959 1.47 6.043 1.47 7.483 0 13.526-6.27 13.526-14.221m-57.673.21v-.42c0-25.532 18.115-46.233 44.132-46.233 13.541 0 25.193 5.865 33.11 14.85-8.112 5.641-17.275 12.122-26.647 19.247-1.874-1.05-3.959-1.47-6.043-1.47-7.498 0-13.526 6.27-13.526 14.221 0 .63 0 1.47.21 2.085a944.864 944.864 0 0 0-25.822 20.297C31.334 83.9 29.46 76.37 29.46 68.21M5.512 68v.42c0 13.816 3.96 26.777 11.037 37.458C5.317 115.704-.936 122.394.114 123.654c1.035 1.26 9.162-2.925 21.654-10.876C33.839 126.79 52.164 136 73.818 136c40.187 0 68.709-31.172 68.709-68v-.42c0-13.801-3.96-26.777-11.037-37.458 11.022-9.615 17.275-16.321 16.435-17.776-1.035-1.26-9.162 2.925-21.654 10.876C114.2 9.196 95.875 0 74.221 0 34.05 0 5.513 31.172 5.513 68"/>
</svg>
